<?xml version="1.0" encoding="UTF-8"?>
<svg id="Camada_1" data-name="Camada 1" xmlns="http://www.w3.org/2000/svg" viewBox="0 0 350 350">
  <defs>
    <style>
      .cls-1 {
        fill: #547047;
        stroke-width: 0px;
      }
    </style>
  </defs>
  <g>
    <path class="cls-1" d="M28.28,258.61c-.63.3-1.02.66-1.2,1.07-.18.41-.13,1.08.14,2.01l-.53.26-1.91-3.94,2.96-1.13-.17-.35c-2.73-.3-4.59-1.49-5.58-3.58-.77-1.59-.82-3.2-.13-4.86.66-1.66,1.99-2.97,3.98-3.93,2.23-1.08,4.44-1.23,6.64-.46,2.18.77,3.76,2.15,4.74,4.17.61,1.27.8,2.48.59,3.62l4.15-2.01c1.21-.59,1.49-1.4.85-3.3l.46-.22c1.05,1.34,2.25,2.3,3.6,2.88l-.29.92-18.29,8.87ZM26.47,255.41c.93.32,1.85.39,2.8.21l6.09-2.95c.62-.43,1.04-1.05,1.25-1.89.22-.84.07-1.77-.43-2.79-.67-1.39-1.75-2.36-3.22-2.91s-3.13-.39-4.98.51c-1.82.88-3.03,2.07-3.66,3.57-.65,1.5-.64,2.91,0,4.24.5,1.02,1.22,1.69,2.15,2.01Z"/>
    <path class="cls-1" d="M44.91,283.03c-2.43.73-4.84-.28-6.51-2.57-1.29-1.77-1.8-3.69-1.52-5.76.28-2.07,1.35-3.8,3.25-5.17,1.88-1.37,3.86-1.94,5.93-1.71,2.06.24,3.74,1.25,5.05,3.05,1.12,1.54,1.52,3.3,1.29,4.63-.13.66-.34,1.3-.63,1.91-.62,1.2-1.67,1.86-2.69,2.27l-6.53-8.98-.11.08c-1.63,1.19-2.64,2.66-3.03,4.43-.4,1.76-.02,3.44,1.14,5.03,1.16,1.59,2.58,2.34,4.3,2.25l.07.56ZM47.24,269.38c-1.23-.22-2.51.04-3.87.8l5.2,7.15c1.01-.54,1.73-1.4,2.16-2.62.42-1.21.21-2.4-.64-3.56-.69-.95-1.64-1.54-2.86-1.76Z"/>
    <path class="cls-1" d="M53.27,297.33c-.45-.9-.69-1.54-.72-1.95l2.16-2.28.57.56c-1.16,2.17-.94,4.06.69,5.67,1.45,1.43,3.08,1.69,4.36.4.58-.59.89-1.19.73-2.07-.09-.44-.17-.77-.25-.98-.09-.23-.26-.63-.51-1.24-.28-.61-.45-.99-.5-1.16-.56-1.29-.87-2.46-.94-3.51-.09-1.04.24-1.96,1-2.73.87-.88,1.91-1.26,3.14-1.15,1.21.13,2.44.79,3.66,2,1.21,1.19,1.91,2.51,2.11,3.95l-2.24,2.15-.5-.49c1.16-2.07,1.05-3.81-.37-5.21-1.35-1.34-2.85-1.27-3.85-.25-.54.54-.77,1.17-.67,1.86s.41,1.64.92,2.84c.05.12.17.36.34.74.17.38.32.67.39.86.13.35.54,1.39.62,1.83.07.5.19,1.33.07,1.88-.13.56-.44,1.19-.96,1.72-.87.88-2,1.25-3.4,1.12-1.4-.12-2.75-.81-4.04-2.09-.76-.75-1.36-1.56-1.8-2.47Z"/>
    <path class="cls-1" d="M69.96,312.59l.36-.48c.44.23.73.36.85.42.1.06.33.12.66.2.63.15.98-.09,1.42-.67l5.24-6.97c.42-.56.6-1.05.56-1.49-.04-.43-.41-.98-1.1-1.65l.32-.42c.75.39,1.42.62,2.01.71s1.34.07,2.26-.02l.19.97-7.68,10.23c-.45.6-.57.99-.27,1.54.15.28.26.47.36.59.09.11.3.33.66.68l-.36.47-5.48-4.11ZM84.28,296.19c.5-.66,1.47-.8,2.14-.3.67.5.8,1.47.3,2.14-.23.31-.56.49-.96.55-1.29.24-2.28-1.43-1.48-2.38Z"/>
    <path class="cls-1" d="M105.68,319.26l-2.44-1.76c.33,1.2.19,2.35-.4,3.42-.69,1.27-1.73,2.03-3.13,2.29-1.4.26-2.85.01-4.32-.77l-1.62-.89c-.7-.38-1.49-.14-1.89.59-.48.88-.29,1.6.54,2.19l3.31,2.25c1.68,1.13,2.75,2,3.2,2.64s.43,1.37-.05,2.25c-.84,1.53-2.24,2.39-4.22,2.59-1.98.19-4.01-.26-6.11-1.34-1.74-.93-2.88-1.96-3.39-3.11-.53-1.16-.5-2.27.07-3.31.21-.39.78-.69,1.71-.94.93-.25,1.9-.37,2.94-.39-.98-1.11-1.21-2.15-.68-3.11.15-.28.69-.59,1.6-.88.9-.3,1.66-.45,2.26-.45-1.22-1.62-1.48-3.53-.54-5.24.7-1.28,1.76-2.06,3.18-2.32,1.42-.27,2.86,0,4.34.8.73.4,1.36.9,1.91,1.49.41.46,1.88,1.37,4.4,2.75l-.68,1.25ZM91.57,326.41c-.84-.55-1.62-.71-2.38-.45-.75.25-1.32.73-1.71,1.43-.37.67-.44,1.44-.19,2.29.25.85,1.06,1.66,2.48,2.43,1.62.89,3,1.19,4.14.92,1.13-.29,1.93-.88,2.42-1.77.31-.56.31-1.03.03-1.4-.28-.37-.91-.88-1.88-1.51l-2.9-1.95ZM95.74,321.69c.57.31,1.12.46,1.65.44,1.07-.01,1.89-.73,2.45-1.37.56-.64,1-1.44,1.24-2.28.24-.83.39-1.89-.16-2.83-.27-.46-.7-.85-1.26-1.15-.57-.31-1.12-.46-1.66-.44-1.09.04-1.89.74-2.47,1.4-.58.65-1.02,1.45-1.24,2.28-.23.82-.4,1.89.17,2.8.27.46.7.84,1.26,1.15Z"/>
    <path class="cls-1" d="M112.24,336.92l.19-.56c.49.08.81.11.94.13.12.02.35.01.69-.02.64-.05.88-.4,1.11-1.09l2.75-8.28c.22-.66.25-1.19.08-1.58-.17-.4-.7-.8-1.56-1.22l.17-.5c1.49.26,2.62.18,3.3-.03.33-.09.82-.26,1.49-.51l.45.85-1.65,2.53.27.09c2.36-1.56,4.65-1.98,6.85-1.24,2.9.96,3.36,3.14,2.27,6.41l-2.48,7.46c-.24.71-.25,1.12.25,1.55.23.22.41.37.54.43.11.05.38.22.82.45l-.19.56-6.57-2.18.19-.56c1.06.19,1.74.2,2.04.05.36-.18.62-.51.78-1.01l2.47-7.42c.66-1.98.19-3.64-1.94-4.35-1.74-.58-3.54-.27-5.42.92l-2.76,8.31c-.24.71-.23,1.12.24,1.54.23.22.41.37.55.45.13.08.42.23.89.46l-.19.56-6.57-2.19Z"/>
    <path class="cls-1" d="M175.22,345.35c-.02.7.13,1.21.41,1.55.28.35.9.62,1.85.79v.6s-4.39-.1-4.39-.1l.34-3.15h-.39c-1.51,2.28-3.42,3.39-5.73,3.33-1.76-.04-3.23-.74-4.38-2.1-1.18-1.35-1.73-3.13-1.68-5.33.06-2.48.93-4.51,2.62-6.12,1.68-1.59,3.63-2.36,5.87-2.31,1.41.03,2.57.41,3.49,1.13l.1-4.61c.03-1.34-.57-1.97-2.55-2.26v-.51c1.68-.32,3.09-.95,4.21-1.89l.68.68-.46,20.33ZM171.55,345.5c.71-.68,1.19-1.47,1.46-2.39l.15-6.77c-.1-.75-.46-1.4-1.11-1.98-.65-.58-1.54-.87-2.68-.89-1.54-.03-2.9.48-4.06,1.54-1.16,1.06-1.77,2.61-1.82,4.66-.05,2.02.46,3.64,1.5,4.89,1.04,1.26,2.3,1.9,3.78,1.94,1.14.03,2.06-.31,2.77-.99Z"/>
    <path class="cls-1" d="M204.52,341.72c-.45,2.49-2.46,4.18-5.26,4.61-2.16.34-4.1-.08-5.81-1.28-1.71-1.19-2.76-2.94-3.12-5.25-.36-2.3.03-4.31,1.19-6.06,1.16-1.72,2.82-2.76,5.01-3.1,1.88-.29,3.63.16,4.7.97.53.42,1,.89,1.41,1.43.79,1.1.9,2.33.79,3.43l-10.96,1.71.02.13c.31,1.99,1.16,3.56,2.55,4.72,1.38,1.16,3.05,1.59,4.99,1.28,1.94-.3,3.26-1.23,3.96-2.8l.53.19ZM193.45,333.41c-.76.99-1.11,2.25-1.06,3.8l8.73-1.36c-.02-1.15-.46-2.18-1.34-3.12-.88-.93-2.04-1.28-3.46-1.06-1.16.18-2.11.76-2.87,1.73Z"/>
    <path class="cls-1" d="M246.99,327.39c.47,1,1.63.72,2.58-.64l.28.6c-.05.81-.44,1.78-1.18,2.89-.68.32-1.35.31-2.04,0-.69-.31-1.19-.83-1.52-1.52-1.11,2.63-2.62,4.41-4.51,5.29-2.27,1.06-4.24.33-5.17-1.65-.56-1.2-.51-2.33.15-3.37.66-1.04,1.85-2.3,3.57-3.78,1.09-.9,1.84-1.55,2.22-1.98.38-.42.58-.85.58-1.28l-.19-.41c-.62-1.32-1.35-2.09-2.2-2.31-.87-.21-2.03.03-3.52.73-.74.34-1.08.9-1.05,1.65.01,1.19,0,2-.08,2.43-.07.45-.3.76-.67.93-.69.32-1.2.15-1.53-.54-.45-.97-.1-2.13,1.06-3.49,1.14-1.36,2.49-2.4,4.05-3.13,1.4-.65,2.58-.73,3.51-.25.92.49,1.78,1.57,2.55,3.23l3.09,6.61ZM243.43,329.96c.61-.83.99-1.64,1.13-2.42l-1.92-4.1-3.03,2.69c-1.16,1.01-1.9,1.86-2.2,2.54-.31.69-.3,1.4.03,2.1.38.81.92,1.29,1.61,1.4.69.11,1.42,0,2.17-.36.86-.4,1.6-1.03,2.21-1.85Z"/>
    <path class="cls-1" d="M262.63,322.48l-.36-.48c.35-.35.58-.58.71-.72.12-.13.24-.33.38-.6.27-.52.11-.91-.33-1.49l-5.45-7.26c-.42-.56-.82-.87-1.23-.93-.4-.06-.98.22-1.71.83l-.32-.42c1.06-1.07,1.64-2.06,1.86-2.73.12-.32.25-.82.43-1.51l.95.11,1.14,2.79.23-.17c0-1.25.21-2.41.61-3.49.41-1.07,1-1.89,1.77-2.48,1.59-1.19,3.45-.89,4.93.48l.31-.23c-.21-2.62.52-4.57,2.16-5.8,1.07-.81,2.2-1,3.4-.56,1.19.45,2.21,1.25,3.08,2.4l4.72,6.29c.45.6.76.85,1.35.73.28-.04.51-.11.68-.19.16-.08.46-.24.91-.49l.36.47-5.62,4.22-.36-.48c.38-.37.65-.63.79-.78.13-.14.27-.35.4-.62.27-.52.1-.91-.33-1.49l-4.72-6.29c-1.22-1.63-2.86-2.2-4.42-1.03-1.24.93-1.84,2.47-1.81,4.63l5.24,6.98c.45.6.76.85,1.35.73.29-.04.53-.12.7-.2.17-.08.47-.25.92-.5l.36.47-5.62,4.22-.36-.48c.37-.36.62-.61.76-.76.13-.14.27-.35.4-.62.27-.52.1-.91-.33-1.49l-4.72-6.29c-.6-.8-1.3-1.31-2.11-1.54-.8-.22-1.56-.06-2.26.47-1.29.97-1.92,2.53-1.89,4.64l5.26,7.01c.45.6.79.83,1.41.69.31-.07.54-.13.68-.19.14-.06.43-.22.88-.47l.36.48-5.54,4.16Z"/>
    <path class="cls-1" d="M294.53,293.78c-1.48.22-2.85-.21-4.12-1.31l-10.62-9.23c-.91-.79-2.02-.63-3.34.47l-.38-.33c.75-1.35,1.14-2.81,1.2-4.4l.96-.09,8.26,7.18c-.34-1.06-.4-2.21-.18-3.44.23-1.22.74-2.3,1.55-3.24,1.11-1.28,2.55-1.92,4.33-1.93,1.78,0,3.5.73,5.21,2.21,1.91,1.66,2.95,3.6,3.1,5.82.15,2.23-.51,4.21-2.04,5.97-1.15,1.32-2.45,2.1-3.93,2.32ZM299.24,286.65c-.01-1.56-.84-3.07-2.47-4.48-1.52-1.33-3.06-1.99-4.62-2.01-1.54-.01-2.84.57-3.85,1.74-.66.76-1.05,1.57-1.18,2.46-.13.9-.06,1.73.22,2.46l4.85,4.22c1.81,1.57,3.75,1.77,5.43-.16,1.08-1.24,1.61-2.65,1.61-4.23Z"/>
    <path class="cls-1" d="M294.24,260.65c-.7-.45-.92-1.4-.47-2.11s1.4-.92,2.11-.47c.33.21.53.52.62.92.34,1.26-1.25,2.38-2.26,1.66ZM311.71,273.63l-.5-.32c.19-.46.3-.76.36-.88.05-.11.1-.34.15-.67.1-.64-.17-.97-.79-1.36l-7.37-4.67c-.59-.37-1.1-.52-1.53-.44-.43.07-.95.48-1.56,1.22l-.44-.28c.33-.78.51-1.47.55-2.06.04-.6-.03-1.35-.2-2.25l.95-.26,10.8,6.85c.63.4,1.03.49,1.56.14.27-.17.45-.3.56-.41.1-.1.31-.33.63-.71l.5.32-3.67,5.79Z"/>
    <path class="cls-1" d="M324.52,242.06c1.84,1.74,2.16,4.34,1,6.92-.9,2-2.3,3.39-4.24,4.18-1.93.79-3.97.71-6.1-.25-2.12-.95-3.6-2.38-4.43-4.29-.82-1.91-.78-3.86.13-5.89.78-1.73,2.11-2.96,3.37-3.41.64-.22,1.29-.35,1.97-.4,1.35-.06,2.44.52,3.31,1.2l-4.54,10.12.12.06c1.84.83,3.62.97,5.35.43,1.72-.53,2.99-1.69,3.8-3.49.81-1.79.75-3.4-.19-4.84l.45-.34ZM311.52,246.82c.42,1.18,1.28,2.16,2.62,2.96l3.62-8.07c-.97-.61-2.08-.8-3.35-.57-1.26.24-2.18,1.01-2.77,2.33-.48,1.07-.52,2.19-.11,3.35Z"/>
    <path class="cls-1" d="M332.39,230.33l-.58-.15c.04-.5.05-.81.06-.95.01-.12-.02-.35-.07-.68-.1-.64-.47-.85-1.18-1.03l-8.46-2.13c-.67-.17-1.2-.16-1.59.04-.38.2-.75.76-1.1,1.65l-.51-.13c.15-1.5-.02-2.63-.27-3.29-.11-.33-.32-.8-.62-1.45l.81-.51,2.65,1.45.07-.28c-1.73-2.24-2.32-4.49-1.75-6.74.75-2.96,2.88-3.58,6.22-2.74l7.62,1.92c.72.18,1.13.16,1.53-.37.2-.25.34-.44.39-.57.04-.11.19-.39.39-.85l.58.14-1.69,6.72-.58-.14c.11-1.07.07-1.75-.1-2.04-.21-.35-.55-.58-1.06-.71l-7.59-1.91c-2.02-.51-3.64.08-4.19,2.25-.45,1.78,0,3.55,1.32,5.34l8.49,2.14c.72.18,1.14.15,1.52-.35.2-.25.34-.44.41-.58.07-.14.2-.44.39-.92l.58.14-1.69,6.72Z"/>
    <path class="cls-1" d="M335.1,196.05c1.15.1,1.82-.53,1.93-1.5.11-.96,0-1.89-.27-2.85l.69.06c.43.87,1.01,2.39,1.73,4.55-.05.57-.41,1.09-1.04,1.52-.64.44-1.32.63-2.05.56l-11.51-1.05-.22,2.43-.63-.06c-.59-1.78-1.69-3.2-3.28-4.25l.07-.76,3.28.3-.14-4.27c.34.15.83.25,1.49.32l-.37,4.04,10.31.94Z"/>
    <path class="cls-1" d="M335.35,164.9c2.44.69,3.93,2.84,4.1,5.67.13,2.18-.47,4.08-1.82,5.67-1.35,1.6-3.18,2.47-5.52,2.61-2.32.14-4.29-.44-5.92-1.75-1.61-1.31-2.48-3.06-2.62-5.28-.12-1.9.5-3.6,1.4-4.59.46-.49.98-.91,1.56-1.27,1.17-.68,2.41-.67,3.49-.47l.67,11.08h.13c2.02-.13,3.66-.83,4.94-2.11,1.28-1.27,1.86-2.88,1.74-4.85-.12-1.97-.92-3.36-2.41-4.21l.24-.51ZM326.05,175.16c.92.85,2.14,1.32,3.69,1.41l-.54-8.83c-1.14-.08-2.21.25-3.23,1.05-1.01.79-1.46,1.91-1.38,3.35.07,1.17.56,2.18,1.46,3.02Z"/>
    <path class="cls-1" d="M336,148.33c-.1,1-.25,1.68-.44,2.03l-3.05.76-.18-.78c2.15-1.2,2.98-2.92,2.47-5.16-.45-1.99-1.69-3.08-3.46-2.68-.81.18-1.4.53-1.73,1.35-.17.42-.27.74-.32.96-.05.24-.13.67-.24,1.33-.09.66-.16,1.08-.2,1.25-.22,1.39-.59,2.54-1.09,3.47-.49.93-1.26,1.52-2.32,1.76-1.21.27-2.29.03-3.26-.72-.96-.76-1.63-1.98-2.01-3.65-.38-1.66-.26-3.14.35-4.47l3.05-.6.15.68c-2.1,1.12-2.93,2.65-2.49,4.59.42,1.85,1.72,2.6,3.11,2.29.74-.17,1.28-.57,1.57-1.21.29-.64.54-1.6.75-2.89.02-.13.05-.39.11-.81.06-.41.1-.73.14-.93.07-.37.3-1.46.46-1.88.21-.47.56-1.22.95-1.63.41-.41,1.01-.77,1.74-.93,1.21-.27,2.36.02,3.47.88,1.12.86,1.88,2.17,2.28,3.94.24,1.04.31,2.05.19,3.05Z"/>
  </g>
  <path class="cls-1" d="M311.72,90.15c-.56.13-.97.03-1.24-.3-.27-.33-.34-.65-.2-.99.13-.8.71-1.2,1.89-.64l1.52,1.13c.33.16.26.48-.09.51l-1.87.29ZM311.46,92.65c0-.42.28-.75.79-1l1.63-.97c.27-.15.56.08.4.36l-.53,1.84c-.5,1.12-1.23,1.18-1.87.7-.29-.19-.43-.48-.43-.91ZM313.12,87.04c-.4-.39-.53-.77-.41-1.14.13-.36.37-.6.75-.73.75-.27,1.55.12,1.53,1.21l-.1,1.91c-.02.33-.28.42-.5.18l-1.28-1.42ZM316.75,94.41c-.4.14-.75.11-1.06-.07-.32-.18-.44-.56-.4-1.17l.04-1.88c.02-.33.32-.44.56-.2l1.19,1.45c.41.44.56.81.44,1.15-.12.34-.38.58-.77.72ZM316.31,88.9c-.27.15-.52-.07-.4-.34l.57-1.87c.38-1.25,1.24-1.1,1.82-.68.29.19.43.48.43.91,0,.43-.26.76-.76,1.01l-1.67.97ZM318.13,91.31l-1.62-1.07c-.27-.13-.22-.47.09-.53l1.91-.28c.54-.12.95-.03,1.22.29.27.33.35.65.24.98-.19.77-.81,1.2-1.84.62Z"/>
  <path class="cls-1" d="M11.53,196.15c-.56.13-.97.03-1.24-.3-.27-.33-.34-.65-.2-.99.13-.8.71-1.2,1.89-.64l1.52,1.13c.33.16.26.48-.09.51l-1.87.29ZM11.26,198.65c0-.42.28-.75.79-1l1.63-.97c.27-.15.56.08.4.36l-.53,1.84c-.5,1.12-1.23,1.18-1.87.7-.29-.19-.43-.48-.43-.91ZM12.93,193.04c-.4-.39-.53-.77-.41-1.14.13-.36.37-.6.75-.73.75-.27,1.55.12,1.53,1.21l-.1,1.91c-.02.33-.28.42-.5.18l-1.28-1.42ZM16.56,200.41c-.4.14-.75.11-1.06-.07-.32-.18-.44-.56-.4-1.17l.04-1.88c.02-.33.32-.44.56-.2l1.19,1.45c.41.44.56.81.44,1.15-.12.34-.38.58-.77.72ZM16.12,194.9c-.27.15-.52-.07-.4-.34l.57-1.87c.38-1.25,1.24-1.1,1.82-.68.29.19.43.48.43.91,0,.43-.26.76-.76,1.01l-1.67.97ZM17.93,197.31l-1.62-1.07c-.27-.13-.22-.47.09-.53l1.91-.28c.54-.12.95-.03,1.22.29.27.33.35.65.24.98-.19.77-.81,1.2-1.84.62Z"/>
  <g>
    <path class="cls-1" d="M20.11,144.93c-.57.83-1.02,1.35-1.37,1.57l-3.04-.8.22-.77c2.46-.02,4.01-1.13,4.64-3.33.56-1.96,0-3.51-1.75-4.01-.8-.23-1.48-.21-2.17.35-.35.29-.59.52-.74.69-.16.18-.43.53-.85,1.05-.4.54-.66.87-.78,1-.87,1.11-1.74,1.94-2.63,2.52-.87.58-1.83.73-2.88.43-1.19-.34-2.02-1.07-2.51-2.2-.47-1.12-.48-2.52,0-4.17.47-1.63,1.28-2.88,2.45-3.75l2.96.94-.19.67c-2.38-.03-3.84.91-4.39,2.82-.52,1.83.26,3.11,1.63,3.5.74.21,1.4.12,1.96-.31.56-.42,1.25-1.14,2.05-2.17.08-.1.23-.32.49-.66.25-.33.44-.6.57-.76.24-.28.96-1.14,1.31-1.43.41-.31,1.08-.8,1.62-.97.56-.16,1.26-.19,1.97.02,1.19.34,2.05,1.15,2.62,2.44.57,1.29.61,2.81.11,4.55-.29,1.03-.72,1.95-1.31,2.77Z"/>
    <path class="cls-1" d="M24.82,120.53c1.06.46,1.9.06,2.3-.82.4-.88.59-1.8.64-2.79l.64.28c.14.97.21,2.59.22,4.87-.23.53-.73.91-1.47,1.12s-1.45.19-2.12-.1l-10.61-4.59-.97,2.24-.58-.25c0-1.87-.6-3.57-1.78-5.06l.3-.7,3.02,1.31,1.2-4.1c.28.25.71.49,1.31.77l-1.61,3.72,9.5,4.11Z"/>
    <path class="cls-1" d="M31.42,104.12l-6.82-4.24c-.71-.44-1.32-.26-1.68.07-.19.18-.47.47-.82.87l-.51-.31c.95-1.37,1.66-2.64,2.14-3.83l8.8,5.46c1.98,1.23,3.51.94,4.61-.83.98-1.57,1.34-3.38,1.07-5.43l-8.03-4.99c-.71-.44-1.32-.26-1.68.07-.19.18-.47.47-.82.87l-.51-.31c.95-1.37,1.66-2.65,2.14-3.83l10.72,6.65c.59.37,1.1.51,1.55.44.44-.07.98-.45,1.61-1.18l.51.31-2.33,3.75-2.17-1.59-.2.32c.6,2.79.38,5.05-.69,6.78-1.55,2.49-3.84,2.81-6.87.93Z"/>
    <path class="cls-1" d="M57.26,73.01c.52.46,1,.69,1.45.7.45,0,1.05-.29,1.8-.9l.44.39-2.91,3.27-2.18-2.3-.26.29c.77,2.64.38,4.81-1.17,6.53-1.17,1.32-2.65,1.98-4.44,1.98-1.79.02-3.5-.71-5.16-2.17-1.85-1.65-2.84-3.63-2.97-5.96-.13-2.31.55-4.3,2.04-5.98.94-1.05,1.98-1.69,3.12-1.93l-3.45-3.07c-1-.89-1.87-.84-3.38.48l-.38-.34c.84-1.48,1.27-2.96,1.28-4.43l.96-.08,15.2,13.51ZM55,75.91c-.06-.98-.35-1.86-.88-2.66l-5.06-4.5c-.64-.41-1.37-.56-2.23-.43-.86.12-1.66.62-2.41,1.47-1.03,1.16-1.51,2.52-1.45,4.09.06,1.57.84,3.04,2.38,4.4,1.51,1.34,3.08,2.01,4.7,2.02,1.64.02,2.94-.52,3.92-1.63.76-.85,1.1-1.77,1.04-2.76Z"/>
    <path class="cls-1" d="M56.09,48.32c-.54-.64-.45-1.61.18-2.15.64-.54,1.62-.45,2.15.18.25.3.36.66.32,1.06-.05,1.31-1.91,1.9-2.65.91ZM68.88,65.96l-.38-.45c.32-.38.51-.63.6-.73.08-.09.19-.3.34-.6.29-.58.13-.98-.34-1.53l-5.63-6.66c-.45-.53-.89-.82-1.32-.88-.43-.06-1.05.18-1.85.7l-.34-.4c.55-.64.92-1.25,1.14-1.81.22-.56.37-1.29.49-2.21l.98.04,8.26,9.78c.48.57.84.78,1.44.6.31-.08.52-.15.66-.22.13-.06.39-.22.81-.49l.38.45-5.24,4.43Z"/>
    <path class="cls-1" d="M83.61,52.08c-2.1-.38-3.78-1.57-5.02-3.54-1.29-2.05-1.64-4.16-1.03-6.29.61-2.13,1.83-3.75,3.67-4.91,1.77-1.11,3.69-1.46,5.8-1.08,2.09.39,3.76,1.58,5.01,3.57,1.29,2.05,1.64,4.14,1.03,6.26-.61,2.13-1.83,3.76-3.68,4.92-1.77,1.11-3.69,1.46-5.78,1.07ZM91.38,46.65c.3-1.47-.14-3.12-1.31-4.97-1.16-1.84-2.56-3.04-4.22-3.62-1.67-.58-3.13-.45-4.42.36-1.16.73-1.88,1.83-2.18,3.3-.3,1.47.14,3.12,1.3,4.96,1.17,1.85,2.57,3.06,4.23,3.63s3.13.45,4.43-.36c1.16-.73,1.88-1.82,2.18-3.29Z"/>
    <path class="cls-1" d="M123.18,32.62c-1.84-.92-3.1-2.5-3.78-4.74-.7-2.31-.54-4.41.47-6.3,1.01-1.88,2.61-3.15,4.79-3.81,1.45-.44,2.76-.5,3.96-.17,1.2.33,1.93.94,2.2,1.83.28.93-.25,1.57-.9,1.76-.89.27-1.74-.25-2.55-1.58-.62-.95-1.51-1.25-2.66-.9-1.25.38-2.24,1.23-2.99,2.55-.75,1.33-.84,2.95-.26,4.88.59,1.95,1.66,3.38,3.19,4.28,1.53.9,3.19,1.09,4.96.56,1.88-.57,3.06-1.71,3.54-3.43l.54.09c-.05,1.31-.49,2.43-1.33,3.38s-1.95,1.64-3.33,2.06c-2.06.62-4.01.47-5.83-.47Z"/>
    <path class="cls-1" d="M144.97,28.81l-.09-.59c.51-.15.87-.25,1.08-.32.2-.06.42-.18.67-.36.48-.33.54-.75.43-1.47l-1.31-8.66c-.1-.69-.33-1.17-.7-1.44s-1.05-.39-2.07-.32l-.08-.52c1.11-.36,1.94-.7,2.45-1.07.51-.37,1.02-.89,1.55-1.57l.79.55-.54,4.27.69-.11c.58-1.7,1.23-3.02,1.9-3.92.67-.91,1.55-1.45,2.67-1.62.52-.08,1.02-.07,1.48.05l.38,2.52c-.96-.11-1.7-.14-2.22-.06-1.33.2-2.33.8-2.99,1.81-.67,1.01-.9,2.23-.68,3.67l.92,6.09c.14.96.74,1.36,1.31,1.4.28,0,.78.02,1.49,0l.09.59-7.21,1.09Z"/>
    <path class="cls-1" d="M166.85,26.33v-.59c.48-.1.78-.17.91-.19.12-.02.34-.11.64-.25.59-.27.71-.68.7-1.41l-.21-8.72c-.02-.7-.18-1.2-.48-1.52-.3-.31-.93-.52-1.88-.62v-.53c.81-.16,1.49-.39,2.01-.69.52-.3,1.1-.77,1.77-1.42l.75.64.31,12.8c.02.75.16,1.13.75,1.37.29.13.5.21.65.24.14.03.44.07.94.13v.59s-6.84.17-6.84.17ZM167.93,4.57c-.02-.83.66-1.54,1.49-1.57.83-.02,1.54.66,1.56,1.49,0,.39-.13.73-.42,1.03-.86.99-2.68.29-2.64-.95Z"/>
    <path class="cls-1" d="M186.82,26.48c-.91-.42-1.51-.77-1.78-1.07l.25-3.13.79.08c.45,2.42,1.81,3.75,4.09,3.99,2.03.21,3.46-.62,3.64-2.42.09-.83-.05-1.49-.72-2.07-.35-.29-.61-.49-.81-.61-.21-.12-.6-.33-1.18-.65-.6-.3-.97-.49-1.12-.59-1.25-.66-2.21-1.37-2.93-2.14-.72-.76-1.04-1.68-.93-2.76.13-1.23.7-2.18,1.73-2.86,1.02-.66,2.4-.91,4.1-.74,1.69.17,3.06.76,4.12,1.75l-.4,3.08-.69-.07c-.39-2.34-1.57-3.62-3.55-3.83-1.89-.19-3.02.8-3.16,2.22-.08.76.13,1.4.64,1.87.51.48,1.34,1.03,2.49,1.64.11.06.36.17.73.37.37.19.67.33.84.43.32.19,1.29.75,1.63,1.04.37.35.98.92,1.23,1.42.25.52.4,1.2.33,1.94-.13,1.23-.77,2.22-1.95,3.01-1.17.78-2.65,1.09-4.46.91-1.06-.11-2.04-.36-2.95-.8Z"/>
    <path class="cls-1" d="M219.76,29.66c-.28,1.07.8,1.59,2.4,1.15l-.17.64c-.56.59-1.47,1.09-2.75,1.48-.72-.19-1.24-.62-1.57-1.3s-.39-1.4-.2-2.14c-2.53,1.32-4.83,1.72-6.85,1.2-2.43-.63-3.48-2.45-2.93-4.57.33-1.28,1.09-2.12,2.26-2.5,1.17-.38,2.89-.6,5.16-.64,1.42,0,2.41-.02,2.97-.1.56-.08.99-.29,1.27-.62l.12-.44c.37-1.41.29-2.47-.23-3.18-.53-.72-1.58-1.27-3.17-1.68-.79-.2-1.4,0-1.86.6-.75.93-1.28,1.54-1.61,1.83-.34.3-.72.39-1.11.29-.74-.19-1.02-.65-.83-1.39.27-1.03,1.28-1.7,3.05-2.01,1.75-.32,3.45-.26,5.11.17,1.49.39,2.46,1.08,2.87,2.04.4.96.37,2.34-.09,4.11l-1.84,7.06ZM215.39,29.36c.99-.25,1.81-.63,2.42-1.14l1.14-4.38-4.05.14c-1.54.04-2.65.22-3.32.56-.68.33-1.12.88-1.32,1.64-.23.87-.11,1.58.35,2.11.46.52,1.1.9,1.9,1.11.92.24,1.89.23,2.88-.02Z"/>
    <path class="cls-1" d="M230.67,36.61l.22-.55s.81.18.89.2c.15.04.69.1.87.08.17-.02.56-.1.74-.25.19-.14.4-.4.54-.73l6.35-15.54c.46-1.12-.05-2.11-1.52-3l.19-.47c1.61.27,3.13.18,4.55-.28l.39.88-7.87,19.28c-.13.33-.16.67-.11.91.03.23.23.55.34.69.11.14.54.48.69.55.09.05.73.46.76.48l-.22.55-6.8-2.78Z"/>
    <path class="cls-1" d="M247.31,44.07l.29-.52c.47.16.77.25.9.3.11.04.35.07.68.1.64.06.96-.23,1.31-.87l4.18-7.66c.33-.61.44-1.13.35-1.55-.1-.42-.54-.92-1.32-1.48l.25-.46c.8.28,1.5.41,2.1.41.6,0,1.34-.12,2.24-.34l.32.93-6.14,11.23c-.36.66-.43,1.06-.04,1.56.19.26.33.43.44.53.1.09.35.29.75.58l-.29.52-6.02-3.29ZM259.14,25.78c.4-.73,1.34-1.01,2.07-.61.73.4,1.01,1.34.61,2.07-.19.34-.48.57-.88.68-1.24.42-2.46-1.09-1.81-2.15Z"/>
    <path class="cls-1" d="M264.55,54.21c-.58-.82-.92-1.42-1.01-1.82l1.78-2.58.65.47c-.82,2.32-.3,4.16,1.55,5.5,1.65,1.19,3.31,1.19,4.37-.28.49-.67.7-1.32.41-2.16-.15-.43-.29-.73-.39-.93-.12-.21-.35-.59-.7-1.15-.37-.56-.6-.91-.67-1.07-.75-1.19-1.23-2.29-1.47-3.33-.25-1.02-.06-1.97.57-2.85.73-1,1.7-1.54,2.93-1.61,1.22-.06,2.53.41,3.92,1.41,1.38,1,2.27,2.19,2.69,3.58l-1.89,2.47-.56-.41c.83-2.22.45-3.93-1.16-5.09-1.54-1.11-3.01-.82-3.85.34-.45.62-.59,1.27-.38,1.95.21.67.65,1.56,1.34,2.67.07.11.22.33.45.68s.41.61.52.79c.19.32.74,1.29.9,1.72.15.49.39,1.29.36,1.85-.04.58-.25,1.24-.69,1.85-.73,1-1.78,1.54-3.19,1.63-1.41.09-2.85-.38-4.32-1.45-.87-.63-1.59-1.34-2.16-2.17Z"/>
  </g>
  <path class="cls-1" d="M230.87,136.07c-.1-2.11-.35-4.19-.83-6.22-.09-.42-.19-.84-.3-1.25-.2-.75-.47-1.48-.8-2.19-.19-.48-.4-.96-.63-1.43-3.43-7.06-10.42-11.69-17.51-15.07-5.73-2.74-11.82-4.94-16.85-8.82-5.53-4.27-9.41-10.27-13.05-16.23-3.64-5.96-7.22-12.09-12.36-16.82-5.14-4.73-12.19-7.93-19.07-6.7-3.4.67-6.46,3.54-8.03,6.87-8.56,18.24-5.07,65.12.62,93.91-3.07,1.8-5.8,4.04-7.91,6.92-4.16,5.69-5.27,13.01-5.8,20.03-1.18,15.44-.2,31.05,3.27,45.76,1.74,13.87,6.1,27.4,12.78,39.67,3.58,6.57,9.06,13.48,16.53,13.47,6.43,0,11.55-5.17,15.65-10.11,13.46-16.22,26.54-34.29,34.56-53.8,9.84-23.95,21.19-65.04,19.7-88ZM221.13,151.56c-.11,1.54-.25,3.07-.44,4.58-3.23,26.37-15,51.62-33.13,71.05-1.73,1.86-3.86,3.8-6.4,3.65-2.34-.14-4.15-2.02-5.64-3.82-13.55-16.48-20.32-37.11-24.78-58.2,3.86-2.52,8.23-4.31,12.37-6.4,13.11-6.61,23.37-12.37,31.93-24.58,4.04-5.77,11.75-7.25,15.61-6.25,7.39,1.92,10.21,9.8,10.48,19.98ZM147.34,150.34c-3.21-19.39-9.14-74.18,12.37-75.82,3.98-.3,11.3,2.52,14.25,8.92,6.25,13.54,15.33,21.03,27.05,29.86,3.1,2.34,6.4,4.5,9.35,6.99-2.56.75-5.02,1.9-7.26,3.32-5.89,3.74-10.51,9.14-15.15,14.36-4.64,5.22-9.53,10.44-15.73,13.65-5.64,2.92-12.02,4.01-18.14,5.68-1.76.48-3.52,1.03-5.24,1.66-.52-2.89-1.02-5.77-1.5-8.65ZM167.99,278.81c-1.78,1.51-3.91,3.04-6.23,2.76-2.52-.3-4.27-2.59-5.65-4.73-14.38-22.33-21.48-49.28-19.98-75.8.55-9.65,2.58-19.9,8.74-27.13,4.98,17.65,13.4,34.79,22.34,50.62,3.16,5.59,7.28,11.58,13.6,12.73,7.36,1.34,13.98-4.5,18.66-10.32,2.18-2.7,4.22-5.51,6.14-8.41-8.59,22.59-19.37,44.76-37.63,60.27Z"/>
</svg>