<?xml version="1.0" encoding="UTF-8"?>
<svg id="Camada_1" data-name="Camada 1" xmlns="http://www.w3.org/2000/svg" viewBox="0 0 2335.2 740.02">
  <defs>
    <style>
      .cls-1 {
        fill: #547047;
        stroke-width: 0px;
      }
    </style>
  </defs>
  <path class="cls-1" d="M2319.42,326.15c6.92-8.83,15.62-18.41,13.97-29.5-.95-6.47-5.35-11.85-10.01-16.42-20.78-20.42-49.07-31.09-76.94-39.62-116.66-35.71-193.65-32.54-241.65-27.6-13.82,1.42-27.93,3.45-40.21,9.93-12.3,6.48-22.62,18.26-23.81,32.12-.91,10.48,3.47,20.89,9.95,29.18,6.5,8.3,14.96,14.77,23.43,21.03,68.04,37.03,136.05,74.13,204.06,111.23,7.36,4,14.77,8.06,20.91,13.75,6.14,5.69,10.94,13.25,11.62,21.59,1,12.46-7.3,23.89-17.1,31.62-15.32,12.1-34.66,17.92-53.88,21.25-48.31,8.36-100.1,1.76-141.98-23.74-41.88-25.48-72.42-71-74.53-119.99-29.99,52.42-71.87,97.51-122.19,129.39-3.62,2.29-7.36,4.55-11.55,5.42-4.17.87-8.93.11-11.93-2.94-4.36-4.47-3.45-11.74-1.86-17.76,3.66-13.88,9.33-27.13,15.11-40.27,21.63-49.16,45.03-97.54,70.13-145.02,5.4-10.22,11.07-21.39,9.16-32.78-2.2-9.18-12.38-17.46-23.47-18.24-16.17-1.16-29.54,11.62-40.65,23.41-57.52,61.05-217.5,242.76-244.47,222.59-19.11-14.29,33.01-104.75,61.69-164.37,8.99-5.52,18.28-10.54,27.83-15.02,58.81-35.79,112.88-80.5,159.12-132.22,17.23-20.12,32.08-48.97,34.47-75.17,3.53-38.87,2.2-45.46-3.49-73.58-2.67-8.46-7.43-16.48-14.81-19.68-7.39-3.19-16.08-2.12-23.43,1.16-7.34,3.26-13.59,8.53-19.62,13.88-79.65,70.81-134.12,164.92-184.62,253.05-8.25,13.78-16.51,27.57-24.68,41.41-10.9-3.13-21.2-8.82-30.3-15.68-14.28-10.79-26.13-24.4-38.34-37.48-78.23-83.82-151.75-11.56-183.56,21.61-12.44,12.97-24.29,26.5-35.56,40.56-23.08,20.02-47.99,37.62-74.73,48.43-18.79,7.6-39.07,12.44-59.25,12.74-.72-2.33-1.44-4.64-2.16-6.96-10.5-33.77-21.03-67.53-31.55-101.28-2.43-10.05-4.08-12.27-3-18.86.76-4.61,2.48-9.02,5.5-12.55,7.85-9.2,21.95-10.01,33.67-7.03,10.47,2.64,20.44,7.83,27.77,15.74,7.34,7.92,11.81,18.69,11.09,29.46-.36,5.42-1.76,11.62,1.8,15.7,3.91,4.49,11.22,3.3,16.51.55,16.15-8.4,25.14-27.45,24.29-45.63-2.09-44.62-73.41-43.64-90.87-40.16-35.22,7.02-44.77,38.73-44.77,45.59-8.54,14.93-17.08,29.85-25.64,44.8-10.86,16.29-21.69,32.69-32.84,48.88-3.83-.68-7.72-1.1-11.64-1.21-15.89-.47-32.63,4.83-42.77,17.08-11.11,13.44-12.44,32.31-12.17,49.75.09,6.26.34,12.51.83,18.73-1.93,2.1-3.89,4.19-5.88,6.26-14.64,15.24-30.69,29.73-50.01,38.3-5.95,2.64-13.61,4.42-18.39,0-3.77-3.49-3.96-9.37-3.34-14.47,1.97-16.02,9.1-30.88,16.13-45.43,21.8-45.08,43.62-90.17,65.43-135.27,5.71-9.74,12.15-21.67,13.4-34.75.47-4.7.19-9.63-1.99-13.82-3.34-6.46-10.75-10.05-18.01-10.52-7.37-.47-14.73,1.82-21.2,5.38-6.46,3.58-12.13,8.38-17.65,13.29-21.42,19.07-40.95,40.14-60.44,61.18-41.14,45.29-83.63,92.5-127.5,138.42-14.28,14.96-28.91,29.94-46.58,40.69-5.73,3.49-12.85,6.56-18.92,3.72-8.78-4.11-18.06-22.69,13.16-69.18,20.38-30.35,40.78-60.73,61.16-91.08,15.07-23.68,31.26-48.1,47.44-72.52,4.15-6.26,8.38-12.68,10.16-19.96,1.8-7.3.7-15.77-4.65-21.03-9.38-7.36-23.62-6.45-35.72-2.67-12.12,3.79-23.45,10.07-35.93,12.36-5.48,1-11.36,1.18-16.51-.83,11.24-14.41,20.17-30.62,26.2-47.87,1.93-5.52,3.6-11.32,3.03-17.14-.57-5.82-3.83-11.7-9.25-13.86-6.2-2.46-13.16.4-19,3.64-26.58,14.79-47.95,38.73-59.61,66.81-3.18,7.66-5.59,16.65-1.78,24.02,3.32,6.41,10.28,9.54,17.63,10.83-2.39,2.45-4.8,4.87-7.22,7.28-17.56,20.65-30.73,28.21-55.45,29.29-13.08.57-28.19-3.83-33.2-15.91-5.04-12.13,2.31-25.54,9.4-36.59,20.3-31.62,40.61-63.27,60.91-94.89,6.92-9.9,12.66-25.22,12.08-40.61-.59-15.39-7.83-30.69-20.23-39.85-18.01-13.29-42.66-11.93-64.78-8.57-89.62,13.59-290.18,74.97-546.07,330.87-14.38,14.38-27.64,31.34-31.51,51.32-4.59,23.76,6.28,48.59,23.45,65.62,17.18,17.03,39.91,27.3,62.87,34.9,74.07,24.51,139.61,30.07,217.54,26.39,30.83-1.59,89.07-12.4,122.3-21.73,33.03-9.27,64.02-26.57,83.88-55.21,13.29-19.16,20.72-40.89,27.55-62.91,2.29-7.38,3.91-16.98-2.36-21.5-6.33-4.56-14.99.14-21.3,4.73-153.93,111.81-254.99,121.03-389.42,105.65-31.76-3.63-113.88-10.82-104.68-61.19,5.99-32.81,40.04-59.19,64.28-79.11,143.16-117.62,304.52-222.43,486.87-255.34,10.35-1.88,21.01-3.51,31.36-1.55,10.33,1.93,20.48,8.13,24.4,17.9,5.71,14.16-2.92,29.69-11.21,42.51-9.65,14.9-19.3,29.8-28.95,44.69-10.73,16.57-21.92,35.87-16.65,54.89,6.65,23.96,37.6,33.86,61.37,26.56,23.77-7.3,41.73-26.41,58.01-44.52,1.02-.8,2.03-1.59,3.03-2.43,31.81-3.84,65.75-22.02,79.7-25.61,3.6-.93,7.6-1.65,10.9.08,4.19,2.18,5.67,7.74,4.59,12.34-1.1,4.61-4.13,8.46-7.15,12.11-30.75,37.35-66.13,70.62-99.1,106.04-32.99,35.42-63.97,73.6-83.8,117.74-11.93,26.54-9.25,64.19,42.51,66.09,17.57.64,34.92-5.48,49.84-14.81,14.92-9.33,27.64-21.73,39.62-34.62,26.09-28.04,49.12-58.72,72.73-89.58,22.05-25.03,44.1-50.05,66.15-75.1,27.07-30.71,54.43-61.71,87.57-85.73,4.93-3.58,12.25-6.85,16.51-2.47,1.64,1.68,2.27,4.1,2.04,6.44-.42,4.18-3.06,7.47-5.58,10.61-43.72,54.41-82,107-117.47,167.84-10.62,17.44-24.72,41.33-29.25,62.03-6.77,30.92,9.97,65.93,50.39,60.46,16.53-2.24,31.78-10.58,44.63-21.2,12.87-10.64,23.64-23.53,34.33-36.34,8.78-10.52,17.56-21.06,25.99-31.4.68,3.34,1.5,6.65,2.46,9.93,8.36,28.38,28.14,53.22,53.92,67.72,25.78,14.52,57.27,18.56,85.86,11,16.46-4.36,52.1-18.82,45.98-94.06-1.59-19.55-6.48-38.6-12.11-57.45,39.64-.06,79.44-14.73,108.63-41.69.11-.04.23-.09.36-.13-17.48,24.78-33.12,50.87-46.71,78-11.13,22.22-21.08,46.07-20.42,70.93.65,24.49,15.83,50.63,59.83,34.81,38.6-13.88,67.74-45.37,95.25-75.78,39.49-43.61,101.73-114.08,118.49-130.84,41.51-41.51-48.55,91.75-76.2,150.25-6.07,12.84-11.94,27.05-8.55,40.84,5.12,20.81,27.79,32.45,55.02,30.05,7.32-.64,16.7-5.19,14.86-12.32-.72-2.82-3.11-4.83-5.16-6.92-8.59-8.8-12.23-21.52-12.23-33.82.02-12.29,3.32-24.32,6.96-36.06,12.7-40.76,30.03-80.06,51.57-116.9,3.47-5.93,7.09-11.94,8.49-18.66,1.42-6.71.17-14.43-4.91-19.03-5.84-5.29-15.15-5.01-22.18-1.48-7.05,3.55-12.36,9.69-17.52,15.64-47.8,55.08-99.33,106.89-154.12,154.97-4.61,4.04-9.37,8.13-15.13,10.18-5.74,2.07-12.82,1.65-17.2-2.62-6.39-6.16-4.47-16.68-1.76-25.14,20.8-64.74,60.63-121.53,102.21-175.33,16.15-20.91,35.57-43.21,61.86-45.82,20.48-2.05,40.21,8.76,55.59,22.41,15.38,13.67,27.81,30.39,43.23,44.02,9.57,8.49,20.89,15.83,32.99,19.66-24.38,41.44-47.97,83.38-68.63,126.8-6.24,13.1-12.27,26.54-14.33,40.91-6.28,43.67,28.92,65.9,65.67,54.87,19.58-5.88,35.81-19.55,50.49-33.78,33.44-32.48,78.36-91.14,87.91-102.62,35.72-44.14,89.81-107.65,141.36-155.07,5.1-4.7,13.31-9.38,18.16-4.42,4.78,4.85.21,12.84-4.27,17.97-55.72,64.01-102.81,135.54-139.6,212.02-11.33,23.57-22.29,64.39,23.51,76.56,16.55,4.4,34.47.66,49.65-7.2,15.21-7.87,28.04-19.6,40-31.83,36.27-37.1,63.28-72.82,91.4-116.69-1.63,29.99,14.71,58.2,34.62,80.71,31.02,35.06,72.14,61.07,116.39,74.47,29.73,6.92,60.95,9.21,90.76,2.62,29.78-6.62,58.07-22.73,75.89-47.49,8.08-11.2,14.05-24.7,12.97-38.47-1.57-19.91-17.08-35.7-32.86-47.93-57.52-44.67-130.06-67.17-185.78-113.45-5.08-5.14-9.57-11.03-12.04-17.82-2.46-6.79-2.71-14.6.45-21.1,4.63-9.52,15.26-14.39,25.37-17.63,43.32-13.88,95.63-12.51,135.33-8.29,59.53,6.22,137.53,27.15,149.57,52.06,2.2,9.48-14.37,21.76-24.87,29.58-10.52,7.79-21.92,14.81-30.18,24.95-8.29,10.16-12.91,24.59-7.53,36.51,3.92,8.72,12.84,14.73,22.3,16.12,9.46,1.38,19.28-1.57,27.09-7.09,3.6-2.56,6.92-7.91,3.68-10.9-1.69-1.55-4.28-1.4-6.48-2.1-3.87-1.23-6.35-5.23-6.92-9.25-.57-4.02.45-8.08,1.67-11.96,4.34-13.86,11.19-26.92,20.13-38.37ZM995.83,175.35c-2.84,2.7-6.25,4.71-9.4,7.04-3.15,2.33-6.14,5.14-7.58,8.78-1.86,4.68-.81,10.27,2.22,14.29,3.03,4.03,7.84,6.53,12.82,7.27,4.98.74,10.12-.19,14.79-2.08,5.62-2.28,10.69-6,14.28-10.89,3.59-4.88,5.65-10.95,5.43-17-.15-4.23-1.48-8.55-4.4-11.61-3.76-3.94-9.78-5.25-15.11-4.07-5.32,1.18-9.97,4.56-13.5,8.71M1874.32,224.05c-25.53-9.12-24.46-64.85,8.22-52.88,12.73,10.37,17.36,60.77-8.98,52.36l.76.51ZM1673.81,223.29c19.58-35.38,41.12-71.7,64.33-106.95,20.61-30.28,42.94-59.78,67.1-87.72,4.19-4.85,9.25-10.05,15.66-10.09,4.25.3,8.13,4,10.35,8.3,2.22,4.3,3.03,9.2,3.64,13.99,2.12,16.7,2.29,33.65.49,50.39-.25,20.76-11.64,48.42-26.01,68.54-14.56,20.36-33.03,37.54-51.8,54.09-39.98,35.32-82.09,68.69-128.58,94.76,14.12-28.84,29.08-57.29,44.82-85.32ZM707,203.46c.02-8.36,2.79-18.75,7.92-25.35,5.12-6.6,13.42-16.4,19.03-14.92,3.94,1.12,1.82,10.11-.61,14.84-6.69,13.06-14.71,25.31-23.62,36.95-1.8-3.55-2.73-7.56-2.73-11.53ZM1102.54,271.26c3.31,17.32,18.99,87.68,22.28,110.64-1.38-.3-2.79-.63-4.17-.97-15.41-3.89-29.78-10.98-44.4-17.23-5.99-2.56-14.96-5.95-21.18-7.98,17.73-27.53,35.57-53.98,47.47-84.46ZM995.8,410.85c-2.1-10.86-3.26-22.85,2.5-32.31,5.99-9.84,18.16-14.35,29.67-15,2.2-.13,4.4-.13,6.58-.06-12.13,17.27-24.68,34.22-38.11,50.49-.23-1.04-.44-2.09-.64-3.13ZM1125.84,449.19c-1.73,11.98-4.83,24.06-11.79,33.97-6.94,9.9-18.33,17.33-29.86,16.82-22.9,2.41-45.75-9.29-60.8-26.69-10.73-12.4-17.92-27.36-22.77-43.09,1.16-1.48,28.5-33.99,48.23-63.17,18.45,4.59,39.06,13.25,57.33,19.41,6.5,2.18,13.14,3.91,19.87,5.16,2.18,19.21,2.58,38.45-.21,57.6Z"/>
  <g>
    <path class="cls-1" d="M883.1,87.82c7.13,0,12.61-3.43,12.61-9.74s-7-8.88-11.1-10.42l-13.16-4.93c-11.8-4.43-19.88-11.59-19.88-25.5,0-19.54,17.53-28.24,34.82-28.24,10.97,0,23.58,5.21,30.02,11.65l-9.46,15.49c-5.48-5.48-13.98-9.6-21.11-9.6s-12.34,2.75-12.34,8.5,5.11,7.85,9.6,9.59l14.12,5.34c12.05,4.44,20.56,12.14,20.56,25.91,0,20.47-18.42,30.43-36.73,30.43-13.71,0-25.91-7.13-33.58-14.25l10.97-16.17c6.85,7.13,17.41,11.93,24.67,11.93Z"/>
    <path class="cls-1" d="M968.75,27.65V10.11h71v17.54h-24.4v77.03h-22.21V27.65h-24.4Z"/>
    <path class="cls-1" d="M1122.93,80.97c3.02,3.57,7.4,5.89,13.57,5.89s10.56-2.33,13.57-5.89c3.15-3.84,3.7-9.05,3.7-15.76V10.11h22.34v55.1c0,13.3-2.33,22.48-9.05,29.75-6.58,7.13-16.86,11.24-30.57,11.24s-23.99-4.11-30.7-11.24c-6.58-7.26-8.91-16.45-8.91-29.75V10.11h22.34v55.1c0,6.71.55,11.93,3.7,15.76Z"/>
    <path class="cls-1" d="M1309.88,21.48c7.95,6.58,15.35,17.54,15.35,35.91s-7.4,29.33-15.35,36.05c-7.81,6.58-20.01,11.24-36.46,11.24h-32.07V10.11h32.07c16.45,0,28.65,4.66,36.46,11.38ZM1294.39,79.05c3.97-3.7,8.36-10.01,8.36-21.66s-4.39-18.36-8.36-22.2c-3.98-3.7-10.56-6.72-19.74-6.72h-11.24v57.43h11.24c9.18,0,15.76-3.02,19.74-6.85Z"/>
    <path class="cls-1" d="M1408.55,10.11v94.57h-22.21V10.11h22.21Z"/>
    <path class="cls-1" d="M1469.67,57.53c0-30.57,22.07-48.93,50.17-48.93s50.17,18.36,50.17,48.93-22.07,48.8-50.17,48.8-50.17-18.23-50.17-48.8ZM1547.52,56.98c0-17.96-11.92-29.47-27.69-29.47s-27.69,11.38-27.69,29.47,11.93,29.6,27.69,29.6,27.69-11.51,27.69-29.6Z"/>
  </g>
  <g>
    <path class="cls-1" d="M320.57,646.36v31.22h.32c2.21-5.26,8.3-8.93,15.35-8.93,14.09,0,17.45,8.62,17.45,20.39v29.85h-7.78v-29.33c0-9.15-2.94-14.19-12.09-14.19s-13.24,7.25-13.24,15.77v27.75h-7.78v-72.53h7.78Z"/>
    <path class="cls-1" d="M382.07,647.31c3.15,0,5.47,2.31,5.47,5.36-.1,3.05-2.31,5.36-5.47,5.36s-5.57-2.31-5.57-5.36,2.31-5.36,5.57-5.36ZM385.96,669.6v49.3h-7.78v-49.3h7.78Z"/>
    <path class="cls-1" d="M424.22,713.74c5.36,0,10.51-2.31,10.51-8.2,0-5.09-6.22-7.28-10.35-8.59l-1.74-.56c-3.57-1.16-14.09-3.57-14.09-13.98,0-9.04,7.88-13.77,15.87-13.77s12.72,2.63,16.19,5.78l-3.78,4.73c-3.47-2.94-7.99-4.52-12.4-4.52-5.15,0-8.72,2.42-8.72,7.04s5.05,6.62,10.51,8.41l1.82.59c5.39,1.74,14.05,4.78,14.05,14.23s-7.88,15.03-18.08,15.03c-8.09,0-14.61-3.47-18.29-8.73l4.1-4.94c4.73,5.36,9.67,7.46,14.4,7.46Z"/>
    <path class="cls-1" d="M475.52,719.95c-4.42,0-7.67-1.79-9.36-4.63-2.1-3.47-2.42-8.83-2.42-15.35v-23.76h-7.36v-6.52h7.36v-15.24h7.88v15.24h12.09v6.52h-12.19v25.33c0,3.99,0,7.46,1.58,9.78.84,1.26,2.73,1.89,5.05,1.89,3.05,0,5.47-1.16,5.47-1.16l.42,6.31c-2.31,1.05-5.15,1.58-8.51,1.58Z"/>
    <path class="cls-1" d="M524.41,668.65c14.4,0,25.75,10.72,25.75,25.75s-11.35,25.54-25.75,25.54-25.65-10.41-25.65-25.54,11.25-25.75,25.65-25.75ZM542.17,694.19c0-10.62-6.83-18.82-17.77-18.82s-17.66,8.2-17.66,18.82,6.73,18.92,17.66,18.92,17.77-8.41,17.77-18.92ZM537.12,646.36l-11.77,15.24h-6.2l9.67-15.24h8.3Z"/>
    <path class="cls-1" d="M578.44,669.6v8.41c2.31-5.99,7.04-9.36,12.51-9.36,3.26,0,5.26.84,5.26.84l-.53,7.36h-.32c-1.68-.74-3.89-.95-5.36-.95-4.52,0-7.46,3.15-8.3,4.31-2,2.84-3.26,5.68-3.26,13.14v25.54h-7.78v-49.3h7.78Z"/>
    <path class="cls-1" d="M617.65,647.31c3.15,0,5.47,2.31,5.47,5.36-.1,3.05-2.31,5.36-5.47,5.36s-5.57-2.31-5.57-5.36,2.31-5.36,5.57-5.36ZM621.54,669.6v49.3h-7.78v-49.3h7.78Z"/>
    <path class="cls-1" d="M658.33,719.95c-9.36,0-16.92-5.99-16.92-15.03,0-8.41,6.2-14.3,19.66-14.93l13.35-.63v-2.21c0-8.3-5.57-11.98-13.03-11.98s-13.25,2.94-14.61,3.89l-2.63-5.57c3.26-1.89,9.78-4.83,17.55-4.83s12.72,2.31,15.77,5.57c3.05,3.26,4.84,7.36,4.84,15.77v28.91h-7.67l-.1-6.52c-1.89,2.1-6.83,7.57-16.19,7.57ZM649.5,704.81c0,4.94,4.1,8.94,10.41,8.94,6.73,0,12.3-3.89,14.61-7.04v-11.67l-12.82.63c-9.15.42-12.19,4.1-12.19,9.15Z"/>
    <path class="cls-1" d="M719.09,713.74c5.36,0,10.51-2.31,10.51-8.2,0-5.09-6.22-7.28-10.35-8.59l-1.74-.56c-3.57-1.16-14.09-3.57-14.09-13.98,0-9.04,7.88-13.77,15.87-13.77s12.72,2.63,16.19,5.78l-3.78,4.73c-3.47-2.94-7.99-4.52-12.4-4.52-5.15,0-8.72,2.42-8.72,7.04s5.05,6.62,10.51,8.41l1.82.59c5.39,1.74,14.05,4.78,14.05,14.23s-7.88,15.03-18.08,15.03c-8.09,0-14.61-3.47-18.29-8.73l4.1-4.94c4.73,5.36,9.67,7.46,14.4,7.46Z"/>
    <path class="cls-1" d="M825.58,710.38c-3.57,5.89-10.2,9.57-18.5,9.57-15.03,0-23.55-10.83-23.55-25.65s9.46-25.65,23.97-25.65c7.57,0,14.4,3.47,17.98,9.36h.21l-.21-8.41h7.78v69.06h-7.67v-28.28ZM825.68,694.09c0-10.72-6.1-18.82-17.03-18.82s-17.13,7.99-17.13,18.71,6.31,19.24,17.13,19.24,17.03-8.51,17.03-19.13Z"/>
    <path class="cls-1" d="M889.71,711.01c-2.21,5.26-8.51,8.72-15.56,8.72-5.96,0-10.02-1.54-12.72-4.22-3.68-3.64-4.83-9.38-4.83-16.17v-29.85h7.88v29.33c0,9.15,2.94,14.19,12.09,14.19s13.14-7.57,13.14-16.19v-27.33h7.67v49.41h-7.57l-.11-7.88h0Z"/>
    <path class="cls-1" d="M941.95,719.95c-14.51,0-24.28-9.99-24.28-25.86,0-13.98,9.57-25.44,24.28-25.44,13.56,0,22.92,9.78,22.92,23.34,0,1.79-.32,4.1-.32,4.1h-38.89c.1,10.2,7.15,17.34,17.66,17.34,9.67,0,16.61-6.2,16.61-6.2l3.36,4.62c-4.55,5.4-11.67,8.09-21.34,8.09ZM941.64,675.17c-9.88-.1-15.24,7.36-15.87,15.03h31.22c0-6.94-4.52-14.93-15.35-15.03Z"/>
    <path class="cls-1" d="M1023.42,669.49v8.72c2.73-4.62,9.36-9.57,18.08-9.57,15.14,0,23.97,10.93,23.97,25.54s-9.99,25.75-23.76,25.75c-7.25,0-14.4-2.84-18.19-9.46-.02,3.41-.06,6.91-.07,10.32v17.85h-7.81v-69.17h7.78ZM1057.37,694.19c0-10.72-6.2-19.03-17.13-19.03-9.88,0-17.13,8.3-17.13,19.03s5.89,18.92,16.92,18.92,17.34-8.3,17.34-18.92Z"/>
    <path class="cls-1" d="M1093.64,669.6v8.41c2.31-5.99,7.04-9.36,12.51-9.36,3.26,0,5.26.84,5.26.84l-.53,7.36h-.32c-1.68-.74-3.89-.95-5.36-.95-4.52,0-7.46,3.15-8.3,4.31-2,2.84-3.26,5.68-3.26,13.14v25.54h-7.78v-49.3h7.78Z"/>
    <path class="cls-1" d="M1150.09,668.65c14.4,0,25.75,10.72,25.75,25.75s-11.35,25.54-25.75,25.54-25.65-10.41-25.65-25.54,11.25-25.75,25.65-25.75ZM1167.86,694.19c0-10.62-6.83-18.82-17.77-18.82s-17.66,8.2-17.66,18.82,6.73,18.92,17.66,18.92,17.77-8.41,17.77-18.92Z"/>
    <path class="cls-1" d="M1188.46,733.09c7.78,0,8.41-6.1,8.41-13.77v-49.72h7.78v49.83c0,7.03-1.17,13.13-4.83,16.76-2.25,2.23-5.44,3.53-9.89,3.53-2.84,0-4.63-.53-4.63-.53v-6.73c1.33.42,2.38.63,3.15.63ZM1200.76,647.31c3.15,0,5.47,2.31,5.47,5.36s-2.31,5.36-5.47,5.36-5.57-2.31-5.57-5.36,2.31-5.36,5.57-5.36Z"/>
    <path class="cls-1" d="M1249.96,719.95c-14.51,0-24.28-9.99-24.28-25.86,0-13.98,9.57-25.44,24.28-25.44,13.56,0,22.92,9.78,22.92,23.34,0,1.79-.32,4.1-.32,4.1h-38.89c.1,10.2,7.15,17.34,17.66,17.34,9.67,0,16.61-6.2,16.61-6.2l3.36,4.62c-4.55,5.4-11.67,8.09-21.34,8.09ZM1249.65,675.17c-9.88-.1-15.24,7.36-15.87,15.03h31.22c0-6.94-4.52-14.93-15.35-15.03Z"/>
    <path class="cls-1" d="M1306.52,719.95c-4.42,0-7.67-1.79-9.36-4.63-2.1-3.47-2.42-8.83-2.42-15.35v-23.76h-7.36v-6.52h7.36v-15.24h7.88v15.24h12.09v6.52h-12.19v25.33c0,3.99,0,7.46,1.58,9.78.84,1.26,2.73,1.89,5.05,1.89,3.05,0,5.47-1.16,5.47-1.16l.42,6.31c-2.31,1.05-5.15,1.58-8.51,1.58Z"/>
    <path class="cls-1" d="M1345.52,719.95c-9.36,0-16.92-5.99-16.92-15.03,0-8.41,6.2-14.3,19.66-14.93l13.35-.63v-2.21c0-8.3-5.57-11.98-13.03-11.98s-13.25,2.94-14.61,3.89l-2.63-5.57c3.26-1.89,9.78-4.83,17.55-4.83s12.72,2.31,15.77,5.57c3.05,3.26,4.84,7.36,4.84,15.77v28.91h-7.67l-.1-6.52c-1.89,2.1-6.83,7.57-16.19,7.57ZM1336.69,704.81c0,4.94,4.1,8.94,10.41,8.94,6.73,0,12.3-3.89,14.61-7.04v-11.67l-12.82.63c-9.15.42-12.19,4.1-12.19,9.15Z"/>
    <path class="cls-1" d="M1400.29,669.6l-.1,7.88h.32c2.42-5.05,7.57-8.83,13.56-8.83,9.68,0,14.12,4.52,15.88,10.6,2.1-6.04,7.98-10.6,14.92-10.6,14.4,0,17.13,10.2,17.13,20.5v29.75h-7.78v-29.33c0-5.99-1.58-14.19-10.41-14.19-8.09,0-12.61,7.88-12.61,17.55v25.96h-7.78v-29.33c0-5.99-1.58-14.19-10.41-14.19-8.09,0-12.72,7.88-12.72,17.55v25.96h-7.78v-49.3h7.78Z"/>
    <path class="cls-1" d="M1527.91,719.95c-9.36,0-16.92-5.99-16.92-15.03,0-8.41,6.2-14.3,19.66-14.93l13.35-.63v-2.21c0-8.3-5.57-11.98-13.03-11.98s-13.25,2.94-14.61,3.89l-2.63-5.57c3.26-1.89,9.78-4.83,17.55-4.83s12.72,2.31,15.77,5.57c3.05,3.26,4.84,7.36,4.84,15.77v28.91h-7.67l-.1-6.52c-1.89,2.1-6.83,7.57-16.19,7.57ZM1519.08,704.81c0,4.94,4.1,8.94,10.41,8.94,6.73,0,12.3-3.89,14.61-7.04v-11.67l-12.82.63c-9.15.42-12.19,4.1-12.19,9.15Z"/>
    <path class="cls-1" d="M1582.68,669.6l-.11,7.88h.32c2.42-5.05,7.57-8.83,13.56-8.83,9.68,0,14.12,4.52,15.88,10.6,2.1-6.04,7.98-10.6,14.92-10.6,14.4,0,17.13,10.2,17.13,20.5v29.75h-7.78v-29.33c0-5.99-1.58-14.19-10.41-14.19-8.09,0-12.61,7.88-12.61,17.55v25.96h-7.78v-29.33c0-5.99-1.58-14.19-10.41-14.19-8.09,0-12.72,7.88-12.72,17.55v25.96h-7.78v-49.3h7.78Z"/>
    <path class="cls-1" d="M1676.13,646.36v31.95c3.16-5.3,9.84-9.66,18.08-9.66,15.14,0,23.86,10.83,23.86,25.44s-9.88,25.86-23.65,25.86c-7.25,0-14.51-2.94-18.29-9.57h-.21v8.51h-7.57v-72.53h7.78ZM1710.08,694.19c0-10.72-6.2-19.03-17.13-19.03-9.88,0-17.13,8.3-17.13,19.03s5.99,18.92,16.92,18.92,17.34-8.3,17.34-18.92Z"/>
    <path class="cls-1" d="M1743.09,647.31c3.15,0,5.47,2.31,5.47,5.36-.1,3.05-2.31,5.36-5.47,5.36s-5.57-2.31-5.57-5.36,2.31-5.36,5.57-5.36ZM1746.98,669.6v49.3h-7.78v-49.3h7.78Z"/>
    <path class="cls-1" d="M1792.29,719.95c-14.51,0-24.28-9.99-24.28-25.86,0-13.98,9.57-25.44,24.28-25.44,13.56,0,22.92,9.78,22.92,23.34,0,1.79-.32,4.1-.32,4.1h-38.89c.1,10.2,7.15,17.34,17.66,17.34,9.67,0,16.61-6.2,16.61-6.2l3.36,4.62c-4.55,5.4-11.67,8.09-21.34,8.09ZM1791.98,675.17c-9.88-.1-15.24,7.36-15.87,15.03h31.22c0-6.94-4.52-14.93-15.35-15.03Z"/>
    <path class="cls-1" d="M1843.06,669.6v8.93c2.25-6.76,9.28-9.87,15.66-9.87,14.09,0,17.45,8.62,17.45,20.39v29.85h-7.78v-29.33c0-9.15-2.94-14.19-12.09-14.19s-13.25,7.25-13.25,15.77v27.75h-7.78v-49.3h7.78Z"/>
    <path class="cls-1" d="M1913.39,719.95c-4.42,0-7.67-1.79-9.36-4.63-2.1-3.47-2.42-8.83-2.42-15.35v-23.76h-7.36v-6.52h7.36v-15.24h7.88v15.24h12.09v6.52h-12.19v25.33c0,3.99,0,7.46,1.58,9.78.84,1.26,2.73,1.89,5.05,1.89,3.05,0,5.47-1.16,5.47-1.16l.42,6.31c-2.31,1.05-5.15,1.58-8.51,1.58Z"/>
    <path class="cls-1" d="M1960.91,719.95c-14.51,0-24.28-9.99-24.28-25.86,0-13.98,9.57-25.44,24.28-25.44,13.56,0,22.92,9.78,22.92,23.34,0,1.79-.32,4.1-.32,4.1h-38.89c.1,10.2,7.15,17.34,17.66,17.34,9.67,0,16.61-6.2,16.61-6.2l3.36,4.62c-4.55,5.4-11.67,8.09-21.34,8.09ZM1960.59,675.17c-9.88-.1-15.24,7.36-15.87,15.03h31.22c0-6.94-4.52-14.93-15.35-15.03Z"/>
    <path class="cls-1" d="M2017.67,713.74c5.36,0,10.51-2.31,10.51-8.2,0-5.09-6.22-7.28-10.35-8.59l-1.74-.56c-3.57-1.16-14.09-3.57-14.09-13.98,0-9.04,7.88-13.77,15.87-13.77s12.72,2.63,16.19,5.78l-3.78,4.73c-3.47-2.94-7.99-4.52-12.4-4.52-5.15,0-8.72,2.42-8.72,7.04s5.05,6.62,10.51,8.41l1.82.59c5.39,1.74,14.05,4.78,14.05,14.23s-7.88,15.03-18.08,15.03c-8.09,0-14.61-3.47-18.29-8.73l4.1-4.94c4.73,5.36,9.67,7.46,14.4,7.46Z"/>
  </g>
</svg>